<svg width="31" height="29" viewBox="0 0 31 29" fill="none" xmlns="http://www.w3.org/2000/svg">
<path d="M30.35 14.2174C30.35 21.5297 23.7653 27.5674 15.5 27.5674C7.23475 27.5674 0.65 21.5297 0.65 14.2174C0.65 6.90507 7.23475 0.867407 15.5 0.867407C23.7653 0.867407 30.35 6.90507 30.35 14.2174Z" stroke="black" stroke-width="1.3"/>
<path d="M24.4596 14.677C24.7135 14.4232 24.7135 14.0116 24.4596 13.7578L20.323 9.62121C20.0692 9.36737 19.6576 9.36737 19.4038 9.62121C19.15 9.87505 19.15 10.2866 19.4038 10.5405L23.0808 14.2174L19.4038 17.8944C19.15 18.1482 19.15 18.5598 19.4038 18.8136C19.6576 19.0674 20.0692 19.0674 20.323 18.8136L24.4596 14.677ZM5 14.8674H24V13.5674H5V14.8674Z" fill="black"/>
</svg>
