<svg width="23" height="22" viewBox="0 0 23 22" fill="none" xmlns="http://www.w3.org/2000/svg">
<path d="M21.4 10.7174C21.4 16.1279 16.7852 20.5674 11.025 20.5674C5.2648 20.5674 0.65 16.1279 0.65 10.7174C0.65 5.30692 5.2648 0.867407 11.025 0.867407C16.7852 0.867407 21.4 5.30692 21.4 10.7174Z" stroke="white" stroke-width="1.3"/>
<path d="M18.4596 11.677C18.7135 11.4232 18.7135 11.0116 18.4596 10.7578L14.323 6.62121C14.0692 6.36737 13.6576 6.36737 13.4038 6.62121C13.15 6.87505 13.15 7.28661 13.4038 7.54045L17.0808 11.2174L13.4038 14.8944C13.15 15.1482 13.15 15.5598 13.4038 15.8136C13.6576 16.0674 14.0692 16.0674 14.323 15.8136L18.4596 11.677ZM4 11.8674H18V10.5674H4V11.8674Z" fill="white"/>
</svg>
